<svg fill="none" height="100%" width="100%" viewBox="0 0 200 200" xmlns:xlink="http://www.w3.org/1999/xlink" xmlns="http://www.w3.org/2000/svg"><g style="isolation: isolate"><g id="i0"><g transform="translate(100,100)"><g transform="rotate(0)"><animateTransform repeatCount="indefinite" type="rotate" attributeName="transform" dur="2.87s" begin="0s" calcMode="spline" values="0; 360; 405; 405" keyTimes="0; 0.86364; 0.988372; 1" keySplines="0 0 1 1; 0 0 1 1; 0 0 1 1" fill="freeze" /><g transform="scale(1,1) translate(0,0)"><g transform="matrix(1,0,0,1,-127,-133)" style="mix-blend-mode: exclusion" id="i1"><g opacity="0"><animate repeatCount="indefinite" attributeName="opacity" dur="2.87s" begin="0s" fill="freeze" values="0; 0; 1; 0" keyTimes="0; 0.738872; 0.86364; 1" keySplines="0 0 1 1; 0 0 1 1; 0 0 1 1" calcMode="spline" /><g transform="translate(126.914,65.654)"><g id="i2" transform="scale(0.75,0.75)"><animateTransform repeatCount="indefinite" type="scale" attributeName="transform" dur="2.87s" begin="0s" calcMode="spline" values="0.75 0.75; 0.75 0.75; 1 1; 0.75 0.75; 0.75 0.75" keyTimes="0; 0.738872; 0.863639; 1; 1" keySplines="0 0 1 1; 0 0 1 1; 0 0 1 1; 0 0 1 1" fill="freeze" /><path fill="#ff8c8c" d="M16,0C16,8.836,8.836,16,0,16C-8.837,16,-16,8.836,-16,0C-16,-8.836,-8.837,-16,0,-16C8.836,-16,16,-8.836,16,0Z" /></g></g></g><g opacity="0"><animate repeatCount="indefinite" attributeName="opacity" dur="2.87s" begin="0s" fill="freeze" values="0; 1; 0; 0" keyTimes="0; 0.124744; 0.860465; 1" keySplines="0 0 1 1; 0 0 1 1; 0 0 1 1" calcMode="spline" /><g transform="translate(74.412,90.68)"><g id="i3" transform="scale(0.75,0.75)"><animateTransform repeatCount="indefinite" type="scale" attributeName="transform" dur="2.87s" begin="0s" calcMode="spline" values="0.75 0.75; 1 1; 0.75 0.75; 0.75 0.75" keyTimes="0; 0.124744; 0.249506; 1" keySplines="0 0 1 1; 0 0 1 1; 0 0 1 1" fill="freeze" /><path fill="#ff8c8c" d="M9.982,-12.504C16.888,-6.991,18.018,3.077,12.505,9.982C6.992,16.888,-3.076,18.017,-9.982,12.505C-16.888,6.992,-18.018,-3.076,-12.504,-9.982C-6.992,-16.888,3.076,-18.017,9.982,-12.504Z"><animate repeatCount="indefinite" attributeName="fill" dur="2.87s" begin="0s" fill="freeze" values="#ff8c8c; #ff8c8c; #7765fc; #7765fc" keyTimes="0; 0.116279; 0.523256; 1" keySplines="0 0 1 1; 0 0 1 1; 0 0 1 1" calcMode="spline" /></path></g></g></g><g opacity="0"><animate repeatCount="indefinite" attributeName="opacity" dur="2.87s" begin="0s" fill="freeze" values="0; 0; 1; 0; 0" keyTimes="0; 0.115151; 0.239884; 0.883721; 1" keySplines="0 0 1 1; 0 0 1 1; 0 0 1 1; 0 0 1 1" calcMode="spline" /><g transform="translate(64.152,146.153)"><g id="i4" transform="scale(0.75,0.75)"><animateTransform repeatCount="indefinite" type="scale" attributeName="transform" dur="2.87s" begin="0s" calcMode="spline" values="0.75 0.75; 0.75 0.75; 1 1; 0.75 0.75; 0.75 0.75" keyTimes="0; 0.115151; 0.239883; 0.364651; 1" keySplines="0 0 1 1; 0 0 1 1; 0 0 1 1; 0 0 1 1" fill="freeze" /><path fill="#ff8c8c" d="M-3.545,-15.602C5.072,-17.56,13.644,-12.162,15.602,-3.544C17.56,5.073,12.162,13.645,3.545,15.602C-5.072,17.56,-13.645,12.162,-15.603,3.544C-17.56,-5.072,-12.162,-13.645,-3.545,-15.602Z"><animate repeatCount="indefinite" attributeName="fill" dur="2.87s" begin="0s" fill="freeze" values="#ff8c8c; #ff8c8c; #7765fc; #7765fc" keyTimes="0; 0.232558; 0.639535; 1" keySplines="0 0 1 1; 0 0 1 1; 0 0 1 1" calcMode="spline" /></path></g></g></g><g opacity="0"><animate repeatCount="indefinite" attributeName="opacity" dur="2.87s" begin="0s" fill="freeze" values="0; 0; 1; 0; 0" keyTimes="0; 0.239884; 0.364651; 0.906977; 1" keySplines="0 0 1 1; 0 0 1 1; 0 0 1 1; 0 0 1 1" calcMode="spline" /><g transform="translate(101.856,190.389)"><g id="i5" transform="scale(0.75,0.75)"><animateTransform repeatCount="indefinite" type="scale" attributeName="transform" dur="2.87s" begin="0s" calcMode="spline" values="0.75 0.75; 0.75 0.75; 1 1; 0.75 0.75; 0.75 0.75" keyTimes="0; 0.240698; 0.364651; 0.495509; 1" keySplines="0 0 1 1; 0 0 1 1; 0 0 1 1; 0 0 1 1" fill="freeze" /><path fill="#ff8c8c" d="M-14.405,-6.964C-10.559,-14.92,-0.992,-18.251,6.964,-14.405C14.92,-10.56,18.251,-0.992,14.406,6.963C10.559,14.919,0.992,18.251,-6.964,14.404C-14.919,10.558,-18.251,0.991,-14.405,-6.964Z"><animate repeatCount="indefinite" attributeName="fill" dur="2.87s" begin="0s" fill="freeze" values="#ff8c8c; #ff8c8c; #7765fc; #7765fc" keyTimes="0; 0.372093; 0.77907; 1" keySplines="0 0 1 1; 0 0 1 1; 0 0 1 1" calcMode="spline" /></path></g></g></g><g opacity="0"><animate repeatCount="indefinite" attributeName="opacity" dur="2.87s" begin="0s" fill="freeze" values="0; 0; 1; 0; 0" keyTimes="0; 0.355046; 0.479802; 0.930233; 1" keySplines="0 0 1 1; 0 0 1 1; 0 0 1 1; 0 0 1 1" calcMode="spline" /><g transform="translate(156.667,190.008)"><g id="i6" transform="scale(0.75,0.75)"><animateTransform repeatCount="indefinite" type="scale" attributeName="transform" dur="2.87s" begin="0s" calcMode="spline" values="0.75 0.75; 0.75 0.75; 1 1; 0.75 0.75; 0.75 0.75" keyTimes="0; 0.353942; 0.479802; 0.608779; 1" keySplines="0 0 1 1; 0 0 1 1; 0 0 1 1; 0 0 1 1" fill="freeze" /><path fill="#ff8c8c" d="M-14.429,6.913C-18.247,-1.056,-14.882,-10.611,-6.913,-14.43C1.055,-18.247,10.61,-14.883,14.428,-6.913C18.247,1.056,14.882,10.611,6.913,14.43C-1.057,18.248,-10.611,14.883,-14.429,6.913Z"><animate repeatCount="indefinite" attributeName="fill" dur="2.87s" begin="0s" fill="freeze" values="#ff8c8c; #ff8c8c; #7765fc; #7765fc" keyTimes="0; 0.488372; 0.895349; 1" keySplines="0 0 1 1; 0 0 1 1; 0 0 1 1" calcMode="spline" /></path></g></g></g><g opacity="0"><animate repeatCount="indefinite" attributeName="opacity" dur="2.87s" begin="0s" fill="freeze" values="0; 0; 1; 0; 0" keyTimes="0; 0.479802; 0.604547; 0.953488; 1" keySplines="0 0 1 1; 0 0 1 1; 0 0 1 1; 0 0 1 1" calcMode="spline" /><g transform="translate(191.848,145.401)"><g id="i7" transform="scale(0.75,0.75)"><animateTransform repeatCount="indefinite" type="scale" attributeName="transform" dur="2.87s" begin="0s" calcMode="spline" values="0.75 0.75; 0.75 0.75; 1 1; 0.75 0.75; 0.75 0.75" keyTimes="0; 0.479802; 0.604546; 0.729273; 1" keySplines="0 0 1 1; 0 0 1 1; 0 0 1 1; 0 0 1 1" fill="freeze" /><path fill="#ff8c8c" d="M-3.6,15.59C-12.209,13.602,-17.579,5.012,-15.59,-3.598C-13.603,-12.209,-5.011,-17.578,3.599,-15.59C12.209,-13.602,17.578,-5.01,15.589,3.6C13.602,12.21,5.01,17.577,-3.6,15.59Z"><animate repeatCount="indefinite" attributeName="fill" dur="2.87s" begin="0s" fill="freeze" values="#ff8c8c; #ff8c8c; #7765fc" keyTimes="0; 0.604651; 1" keySplines="0 0 1 1; 0 0 1 1" calcMode="spline" /></path></g></g></g><g opacity="0"><animate repeatCount="indefinite" attributeName="opacity" dur="2.87s" begin="0s" fill="freeze" values="0; 0; 1; 0; 0" keyTimes="0; 0.604546; 0.729279; 0.976744; 1" keySplines="0 0 1 1; 0 0 1 1; 0 0 1 1; 0 0 1 1" calcMode="spline" /><g transform="translate(178.935,90.077)"><g id="i8" transform="scale(0.75,0.75)"><animateTransform repeatCount="indefinite" type="scale" attributeName="transform" dur="2.87s" begin="0s" calcMode="spline" values="0.75 0.75; 0.75 0.75; 1 1; 0.75 0.75; 0.75 0.75" keyTimes="0; 0.604546; 0.729279; 0.859375; 1" keySplines="0 0 1 1; 0 0 1 1; 0 0 1 1; 0 0 1 1" fill="freeze" /><path fill="#ff8c8c" d="M9.939,12.539C3.013,18.028,-7.05,16.863,-12.539,9.938C-18.028,3.013,-16.864,-7.051,-9.938,-12.54C-3.013,-18.028,7.05,-16.864,12.54,-9.939C18.028,-3.014,16.864,7.05,9.939,12.539Z"><animate repeatCount="indefinite" attributeName="fill" dur="2.87s" begin="0s" fill="freeze" values="#ff8c8c; #ff8c8c; #7765fc" keyTimes="0; 0.732558; 1" keySplines="0 0 1 1; 0 0 1 1" calcMode="spline" /></path></g></g></g></g></g></g></g></g><g opacity="0" id="i0"><g transform="translate(100,100)"><g transform="rotate(0)"><animateTransform repeatCount="indefinite" type="rotate" attributeName="transform" dur="2.87s" begin="0s" calcMode="spline" values="0; 360; 405; 405" keyTimes="0; 0.86364; 0.988372; 1" keySplines="0 0 1 1; 0 0 1 1; 0 0 1 1" fill="freeze" /><g transform="scale(1,1) translate(0,0)" /></g></g></g></g></svg>